<svg xmlns="http://www.w3.org/2000/svg" width="1200" height="90" viewBox="0 0 1200 90">
  <g fill="#c79a4b" opacity="0.18">
    <rect x="0" y="55" width="1200" height="35"/>
    <rect x="40" y="30" width="26" height="60"/>
    <polygon points="40,30 53,14 66,30"/>
    <rect x="120" y="18" width="34" height="72"/>
    <polygon points="120,18 137,0 154,18"/>
    <rect x="210" y="40" width="20" height="50"/>
    <rect x="300" y="24" width="28" height="66"/>
    <polygon points="300,24 314,8 328,24"/>
    <rect x="390" y="42" width="18" height="48"/>
    <rect x="470" y="10" width="40" height="80"/>
    <polygon points="470,10 490,-10 510,10"/>
    <rect x="560" y="36" width="22" height="54"/>
    <rect x="640" y="24" width="28" height="66"/>
    <polygon points="640,24 654,8 668,24"/>
    <rect x="730" y="44" width="18" height="46"/>
    <rect x="810" y="16" width="36" height="74"/>
    <polygon points="810,16 828,-2 846,16"/>
    <rect x="900" y="38" width="22" height="52"/>
    <rect x="980" y="26" width="30" height="64"/>
    <polygon points="980,26 995,10 1010,26"/>
    <rect x="1070" y="42" width="20" height="48"/>
    <rect x="1140" y="20" width="34" height="70"/>
    <polygon points="1140,20 1157,4 1174,20"/>
  </g>
  <g stroke="#c79a4b" stroke-width="1" opacity="0.25" fill="none">
    <line x1="0" y1="55" x2="1200" y2="55"/>
  </g>
</svg>
